<mxfile host="Electron" modified="2020-08-26T15:09:56.320Z" agent="5.0 (Macintosh; Intel Mac OS X 10_15_6) AppleWebKit/537.36 (KHTML, like Gecko) draw.io/13.6.2 Chrome/83.0.4103.122 Electron/9.2.0 Safari/537.36" etag="srxd3iTHOhtkTXVA6B_5" compressed="false" version="13.6.2" type="device">
  <diagram name="Page-1" id="5f0bae14-7c28-e335-631c-24af17079c00">
    <mxGraphModel dx="3183" dy="1023" grid="1" gridSize="10" guides="1" tooltips="1" connect="1" arrows="1" fold="1" page="1" pageScale="1" pageWidth="1100" pageHeight="850" background="#F1FAEE" math="0" shadow="0">
      <root>
        <mxCell id="0" />
        <mxCell id="1" parent="0" />
        <mxCell id="P2i-HHUua_utwsOdTMRU-45" value="" style="group" vertex="1" connectable="0" parent="1">
          <mxGeometry x="-370" y="1000" width="280" height="205" as="geometry" />
        </mxCell>
        <mxCell id="P2i-HHUua_utwsOdTMRU-42" value="TimeLock" style="verticalAlign=top;align=left;spacingTop=8;spacingLeft=2;spacingRight=12;shape=cube;size=10;direction=south;fontStyle=4;html=1;rounded=0;sketch=0;strokeColor=#457B9D;fillColor=#A8DADC;fontColor=#1D3557;" vertex="1" parent="P2i-HHUua_utwsOdTMRU-45">
          <mxGeometry x="-3.7199999999999998" width="220.76923076923077" height="205" as="geometry" />
        </mxCell>
        <mxCell id="P2i-HHUua_utwsOdTMRU-43" value="QueuedTransactions" style="html=1;dropTarget=0;rounded=0;sketch=0;strokeColor=#457B9D;fillColor=#A8DADC;fontColor=#1D3557;" vertex="1" parent="P2i-HHUua_utwsOdTMRU-45">
          <mxGeometry x="30" y="67.02" width="128.84" height="70.96" as="geometry" />
        </mxCell>
        <mxCell id="P2i-HHUua_utwsOdTMRU-44" value="" style="shape=component;jettyWidth=8;jettyHeight=4;" vertex="1" parent="P2i-HHUua_utwsOdTMRU-43">
          <mxGeometry x="1" width="20" height="20" relative="1" as="geometry">
            <mxPoint x="-27" y="7" as="offset" />
          </mxGeometry>
        </mxCell>
        <mxCell id="P2i-HHUua_utwsOdTMRU-46" style="edgeStyle=orthogonalEdgeStyle;curved=0;rounded=1;sketch=0;orthogonalLoop=1;jettySize=auto;html=1;strokeColor=#457B9D;fillColor=#A8DADC;fontColor=#1D3557;entryX=0.495;entryY=1;entryDx=0;entryDy=0;entryPerimeter=0;" edge="1" parent="1" source="P2i-HHUua_utwsOdTMRU-42" target="P2i-HHUua_utwsOdTMRU-7">
          <mxGeometry relative="1" as="geometry" />
        </mxCell>
        <mxCell id="P2i-HHUua_utwsOdTMRU-48" value="Gov" style="edgeLabel;html=1;align=center;verticalAlign=middle;resizable=0;points=[];fontColor=#1D3557;" vertex="1" connectable="0" parent="P2i-HHUua_utwsOdTMRU-46">
          <mxGeometry x="-0.0143" relative="1" as="geometry">
            <mxPoint as="offset" />
          </mxGeometry>
        </mxCell>
        <mxCell id="P2i-HHUua_utwsOdTMRU-47" value="" style="group" vertex="1" connectable="0" parent="1">
          <mxGeometry x="-30" y="910" width="685" height="395" as="geometry" />
        </mxCell>
        <mxCell id="P2i-HHUua_utwsOdTMRU-27" value="" style="group" vertex="1" connectable="0" parent="P2i-HHUua_utwsOdTMRU-47">
          <mxGeometry width="380" height="390" as="geometry" />
        </mxCell>
        <mxCell id="P2i-HHUua_utwsOdTMRU-7" value="YamProxy&lt;br&gt;" style="verticalAlign=top;align=left;spacingTop=8;spacingLeft=2;spacingRight=12;shape=cube;size=10;direction=south;fontStyle=4;html=1;rounded=0;sketch=0;strokeColor=#457B9D;fillColor=#A8DADC;fontColor=#1D3557;" vertex="1" parent="P2i-HHUua_utwsOdTMRU-27">
          <mxGeometry width="380" height="390" as="geometry" />
        </mxCell>
        <mxCell id="P2i-HHUua_utwsOdTMRU-16" value="&lt;b&gt;ERC20&lt;br&gt;&lt;br&gt;&lt;/b&gt;" style="html=1;dropTarget=0;rounded=0;sketch=0;strokeColor=#457B9D;fillColor=#A8DADC;fontColor=#1D3557;" vertex="1" parent="P2i-HHUua_utwsOdTMRU-27">
          <mxGeometry x="20" y="60" width="130" height="69.64285714285714" as="geometry" />
        </mxCell>
        <mxCell id="P2i-HHUua_utwsOdTMRU-17" value="" style="shape=component;jettyWidth=8;jettyHeight=4;" vertex="1" parent="P2i-HHUua_utwsOdTMRU-16">
          <mxGeometry x="1" width="20" height="20" relative="1" as="geometry">
            <mxPoint x="-27" y="7" as="offset" />
          </mxGeometry>
        </mxCell>
        <mxCell id="P2i-HHUua_utwsOdTMRU-19" value="&lt;b&gt;投票权委托&lt;br&gt;&lt;/b&gt;" style="html=1;dropTarget=0;rounded=0;sketch=0;strokeColor=#457B9D;fillColor=#A8DADC;fontColor=#1D3557;" vertex="1" parent="P2i-HHUua_utwsOdTMRU-27">
          <mxGeometry x="200" y="60" width="130" height="69.64285714285714" as="geometry" />
        </mxCell>
        <mxCell id="P2i-HHUua_utwsOdTMRU-20" value="" style="shape=component;jettyWidth=8;jettyHeight=4;" vertex="1" parent="P2i-HHUua_utwsOdTMRU-19">
          <mxGeometry x="1" width="20" height="20" relative="1" as="geometry">
            <mxPoint x="-27" y="7" as="offset" />
          </mxGeometry>
        </mxCell>
        <mxCell id="P2i-HHUua_utwsOdTMRU-28" value="&lt;b&gt;变更实现&lt;/b&gt;" style="html=1;dropTarget=0;rounded=0;sketch=0;strokeColor=#457B9D;fillColor=#A8DADC;fontColor=#1D3557;" vertex="1" parent="P2i-HHUua_utwsOdTMRU-27">
          <mxGeometry x="90" y="300" width="170" height="60" as="geometry" />
        </mxCell>
        <mxCell id="P2i-HHUua_utwsOdTMRU-29" value="" style="shape=component;jettyWidth=8;jettyHeight=4;" vertex="1" parent="P2i-HHUua_utwsOdTMRU-28">
          <mxGeometry x="1" width="20" height="20" relative="1" as="geometry">
            <mxPoint x="-27" y="7" as="offset" />
          </mxGeometry>
        </mxCell>
        <mxCell id="P2i-HHUua_utwsOdTMRU-79" value="" style="group" vertex="1" connectable="0" parent="P2i-HHUua_utwsOdTMRU-27">
          <mxGeometry x="85" y="160" width="180" height="120" as="geometry" />
        </mxCell>
        <mxCell id="P2i-HHUua_utwsOdTMRU-24" value="&lt;p style=&quot;margin: 0px ; margin-top: 6px ; text-align: center&quot;&gt;&lt;b&gt;管理接口&lt;/b&gt;&lt;/p&gt;&lt;hr&gt;&lt;p style=&quot;margin: 0px ; margin-left: 8px&quot;&gt;- setPendingGov/acceptGov&lt;/p&gt;&lt;p style=&quot;margin: 0px ; margin-left: 8px&quot;&gt;- setRebaser&lt;/p&gt;&lt;p style=&quot;margin: 0px ; margin-left: 8px&quot;&gt;- setIncentivizer&lt;/p&gt;&lt;p style=&quot;margin: 0px ; margin-left: 8px&quot;&gt;&lt;br&gt;&lt;/p&gt;" style="align=left;overflow=fill;html=1;dropTarget=0;rounded=0;sketch=0;strokeColor=#457B9D;fillColor=#A8DADC;fontColor=#1D3557;" vertex="1" parent="P2i-HHUua_utwsOdTMRU-79">
          <mxGeometry width="180" height="120" as="geometry" />
        </mxCell>
        <mxCell id="P2i-HHUua_utwsOdTMRU-25" value="" style="shape=component;jettyWidth=8;jettyHeight=4;" vertex="1" parent="P2i-HHUua_utwsOdTMRU-24">
          <mxGeometry x="1" width="20" height="20" relative="1" as="geometry">
            <mxPoint x="-24" y="4" as="offset" />
          </mxGeometry>
        </mxCell>
        <mxCell id="P2i-HHUua_utwsOdTMRU-78" value="+ rebase()" style="text;strokeColor=none;fillColor=none;align=left;verticalAlign=top;spacingLeft=4;spacingRight=4;overflow=hidden;rotatable=0;points=[[0,0.5],[1,0.5]];portConstraint=eastwest;rounded=0;sketch=0;fontColor=#1D3557;" vertex="1" parent="P2i-HHUua_utwsOdTMRU-79">
          <mxGeometry y="94" width="100" height="26" as="geometry" />
        </mxCell>
        <mxCell id="P2i-HHUua_utwsOdTMRU-40" style="edgeStyle=orthogonalEdgeStyle;curved=0;rounded=1;sketch=0;orthogonalLoop=1;jettySize=auto;html=1;strokeColor=#457B9D;fillColor=#A8DADC;fontColor=#1D3557;" edge="1" parent="P2i-HHUua_utwsOdTMRU-47" source="P2i-HHUua_utwsOdTMRU-28" target="P2i-HHUua_utwsOdTMRU-34">
          <mxGeometry relative="1" as="geometry" />
        </mxCell>
        <mxCell id="P2i-HHUua_utwsOdTMRU-39" value="" style="group" vertex="1" connectable="0" parent="P2i-HHUua_utwsOdTMRU-47">
          <mxGeometry x="95" y="490" width="160" height="130" as="geometry" />
        </mxCell>
        <mxCell id="P2i-HHUua_utwsOdTMRU-34" value="&lt;p style=&quot;margin: 0px ; margin-top: 4px ; text-align: center&quot;&gt;&lt;b&gt;Implementation&lt;/b&gt;&lt;/p&gt;&lt;hr size=&quot;1&quot;&gt;&lt;p style=&quot;margin: 0px ; margin-left: 4px&quot;&gt;&lt;br&gt;&lt;/p&gt;" style="verticalAlign=top;align=left;overflow=fill;fontSize=12;fontFamily=Helvetica;html=1;rounded=0;sketch=0;strokeColor=#457B9D;fillColor=#A8DADC;" vertex="1" parent="P2i-HHUua_utwsOdTMRU-39">
          <mxGeometry width="160" height="130" as="geometry" />
        </mxCell>
        <mxCell id="P2i-HHUua_utwsOdTMRU-36" value="+ incentivizer: address" style="text;strokeColor=none;fillColor=none;align=left;verticalAlign=top;spacingLeft=4;spacingRight=4;overflow=hidden;rotatable=0;points=[[0,0.5],[1,0.5]];portConstraint=eastwest;rounded=0;sketch=0;fontColor=#1D3557;" vertex="1" parent="P2i-HHUua_utwsOdTMRU-39">
          <mxGeometry y="90" width="160" height="26" as="geometry" />
        </mxCell>
        <mxCell id="P2i-HHUua_utwsOdTMRU-37" value="+ rebaser: address" style="text;strokeColor=none;fillColor=none;align=left;verticalAlign=top;spacingLeft=4;spacingRight=4;overflow=hidden;rotatable=0;points=[[0,0.5],[1,0.5]];portConstraint=eastwest;rounded=0;sketch=0;fontColor=#1D3557;" vertex="1" parent="P2i-HHUua_utwsOdTMRU-39">
          <mxGeometry y="64" width="160" height="26" as="geometry" />
        </mxCell>
        <mxCell id="P2i-HHUua_utwsOdTMRU-38" value="+ gov: address" style="text;strokeColor=none;fillColor=none;align=left;verticalAlign=top;spacingLeft=4;spacingRight=4;overflow=hidden;rotatable=0;points=[[0,0.5],[1,0.5]];portConstraint=eastwest;rounded=0;sketch=0;fontColor=#1D3557;" vertex="1" parent="P2i-HHUua_utwsOdTMRU-39">
          <mxGeometry y="38" width="160" height="26" as="geometry" />
        </mxCell>
        <mxCell id="P2i-HHUua_utwsOdTMRU-121" value="" style="group" vertex="1" connectable="0" parent="P2i-HHUua_utwsOdTMRU-47">
          <mxGeometry x="505" y="129.6400000000001" width="180" height="120" as="geometry" />
        </mxCell>
        <mxCell id="P2i-HHUua_utwsOdTMRU-115" value="" style="group" vertex="1" connectable="0" parent="P2i-HHUua_utwsOdTMRU-121">
          <mxGeometry width="180" height="120" as="geometry" />
        </mxCell>
        <mxCell id="P2i-HHUua_utwsOdTMRU-112" value="Incentivize&lt;br&gt;&lt;br&gt;" style="verticalAlign=top;align=left;spacingTop=8;spacingLeft=2;spacingRight=12;shape=cube;size=10;direction=south;fontStyle=4;html=1;rounded=0;sketch=0;strokeColor=#457B9D;fillColor=#A8DADC;fontColor=#1D3557;" vertex="1" parent="P2i-HHUua_utwsOdTMRU-115">
          <mxGeometry width="180" height="120" as="geometry" />
        </mxCell>
        <mxCell id="P2i-HHUua_utwsOdTMRU-113" value="YAM/yCRV" style="html=1;dropTarget=0;rounded=0;sketch=0;strokeColor=#457B9D;fillColor=#A8DADC;fontColor=#1D3557;" vertex="1" parent="P2i-HHUua_utwsOdTMRU-115">
          <mxGeometry x="10" y="49.870000000000005" width="140" height="30.13" as="geometry" />
        </mxCell>
        <mxCell id="P2i-HHUua_utwsOdTMRU-114" value="" style="shape=component;jettyWidth=8;jettyHeight=4;" vertex="1" parent="P2i-HHUua_utwsOdTMRU-113">
          <mxGeometry x="1" width="20" height="20" relative="1" as="geometry">
            <mxPoint x="-27" y="7" as="offset" />
          </mxGeometry>
        </mxCell>
        <mxCell id="P2i-HHUua_utwsOdTMRU-118" value="mint" style="edgeStyle=orthogonalEdgeStyle;curved=0;rounded=1;sketch=0;orthogonalLoop=1;jettySize=auto;html=1;strokeColor=#457B9D;fillColor=#A8DADC;fontColor=#1D3557;entryX=0;entryY=0;entryDx=65;entryDy=180;entryPerimeter=0;" edge="1" parent="P2i-HHUua_utwsOdTMRU-47" source="P2i-HHUua_utwsOdTMRU-7" target="P2i-HHUua_utwsOdTMRU-112">
          <mxGeometry relative="1" as="geometry" />
        </mxCell>
        <mxCell id="P2i-HHUua_utwsOdTMRU-73" value="" style="group" vertex="1" connectable="0" parent="1">
          <mxGeometry x="-710" y="600" width="700" height="290" as="geometry" />
        </mxCell>
        <mxCell id="P2i-HHUua_utwsOdTMRU-53" value="Proposer" style="shape=umlActor;verticalLabelPosition=bottom;verticalAlign=top;html=1;rounded=0;sketch=0;strokeColor=#457B9D;fillColor=#A8DADC;fontColor=#1D3557;" vertex="1" parent="P2i-HHUua_utwsOdTMRU-73">
          <mxGeometry x="150" y="109.41" width="30" height="60" as="geometry" />
        </mxCell>
        <mxCell id="P2i-HHUua_utwsOdTMRU-61" value="Anyone" style="shape=umlActor;verticalLabelPosition=bottom;verticalAlign=top;html=1;rounded=0;sketch=0;strokeColor=#457B9D;fillColor=#A8DADC;fontColor=#1D3557;" vertex="1" parent="P2i-HHUua_utwsOdTMRU-73">
          <mxGeometry x="160" y="203.11" width="30" height="60" as="geometry" />
        </mxCell>
        <mxCell id="P2i-HHUua_utwsOdTMRU-49" value="" style="group" vertex="1" connectable="0" parent="P2i-HHUua_utwsOdTMRU-73">
          <mxGeometry x="331.66" y="70" width="230" height="220" as="geometry" />
        </mxCell>
        <mxCell id="P2i-HHUua_utwsOdTMRU-50" value="Gov Implementation" style="verticalAlign=top;align=left;spacingTop=8;spacingLeft=2;spacingRight=12;shape=cube;size=10;direction=south;fontStyle=4;html=1;rounded=0;sketch=0;strokeColor=#457B9D;fillColor=#A8DADC;fontColor=#1D3557;" vertex="1" parent="P2i-HHUua_utwsOdTMRU-49">
          <mxGeometry x="-1.2564705882352942" width="232.51647058823528" height="220" as="geometry" />
        </mxCell>
        <mxCell id="P2i-HHUua_utwsOdTMRU-51" value="Proposals" style="html=1;dropTarget=0;rounded=0;sketch=0;strokeColor=#457B9D;fillColor=#A8DADC;fontColor=#1D3557;" vertex="1" parent="P2i-HHUua_utwsOdTMRU-49">
          <mxGeometry x="27.05" y="45.52" width="172.95" height="47.78" as="geometry" />
        </mxCell>
        <mxCell id="P2i-HHUua_utwsOdTMRU-52" value="" style="shape=component;jettyWidth=8;jettyHeight=4;" vertex="1" parent="P2i-HHUua_utwsOdTMRU-51">
          <mxGeometry x="1" width="20" height="20" relative="1" as="geometry">
            <mxPoint x="-27" y="7" as="offset" />
          </mxGeometry>
        </mxCell>
        <mxCell id="P2i-HHUua_utwsOdTMRU-66" value="&lt;p style=&quot;margin: 0px ; margin-top: 6px ; text-align: center&quot;&gt;&lt;b&gt;API&lt;/b&gt;&lt;/p&gt;&lt;hr&gt;&lt;p style=&quot;margin: 0px ; margin-left: 8px&quot;&gt;&lt;br&gt;&lt;/p&gt;" style="align=left;overflow=fill;html=1;dropTarget=0;rounded=0;sketch=0;strokeColor=#457B9D;fillColor=#A8DADC;fontColor=#1D3557;" vertex="1" parent="P2i-HHUua_utwsOdTMRU-49">
          <mxGeometry x="27.05" y="128.97" width="172.95" height="68.28" as="geometry" />
        </mxCell>
        <mxCell id="P2i-HHUua_utwsOdTMRU-67" value="" style="shape=component;jettyWidth=8;jettyHeight=4;" vertex="1" parent="P2i-HHUua_utwsOdTMRU-66">
          <mxGeometry x="1" width="20" height="20" relative="1" as="geometry">
            <mxPoint x="-24" y="4" as="offset" />
          </mxGeometry>
        </mxCell>
        <mxCell id="P2i-HHUua_utwsOdTMRU-68" value="+ queueTxn" style="text;strokeColor=none;fillColor=none;align=left;verticalAlign=top;spacingLeft=4;spacingRight=4;overflow=hidden;rotatable=0;points=[[0,0.5],[1,0.5]];portConstraint=eastwest;rounded=0;sketch=0;fontColor=#1D3557;" vertex="1" parent="P2i-HHUua_utwsOdTMRU-49">
          <mxGeometry x="40.588235294117645" y="153.24137931034483" width="67.6470588235294" height="19.72413793103448" as="geometry" />
        </mxCell>
        <mxCell id="P2i-HHUua_utwsOdTMRU-69" value="+ executeTxn" style="text;strokeColor=none;fillColor=none;align=left;verticalAlign=top;spacingLeft=4;spacingRight=4;overflow=hidden;rotatable=0;points=[[0,0.5],[1,0.5]];portConstraint=eastwest;rounded=0;sketch=0;fontColor=#1D3557;" vertex="1" parent="P2i-HHUua_utwsOdTMRU-49">
          <mxGeometry x="40.588235294117645" y="172.9655172413793" width="67.6470588235294" height="19.72413793103448" as="geometry" />
        </mxCell>
        <mxCell id="P2i-HHUua_utwsOdTMRU-54" style="edgeStyle=orthogonalEdgeStyle;curved=0;rounded=1;sketch=0;orthogonalLoop=1;jettySize=auto;html=1;entryX=0;entryY=0.5;entryDx=0;entryDy=0;strokeColor=#457B9D;fillColor=#A8DADC;fontColor=#1D3557;" edge="1" parent="P2i-HHUua_utwsOdTMRU-73" source="P2i-HHUua_utwsOdTMRU-53" target="P2i-HHUua_utwsOdTMRU-51">
          <mxGeometry relative="1" as="geometry" />
        </mxCell>
        <mxCell id="P2i-HHUua_utwsOdTMRU-55" value="propose" style="edgeLabel;html=1;align=center;verticalAlign=middle;resizable=0;points=[];fontColor=#1D3557;" vertex="1" connectable="0" parent="P2i-HHUua_utwsOdTMRU-54">
          <mxGeometry x="0.0042" y="-1" relative="1" as="geometry">
            <mxPoint x="-28.57" y="-1" as="offset" />
          </mxGeometry>
        </mxCell>
        <mxCell id="P2i-HHUua_utwsOdTMRU-62" style="edgeStyle=orthogonalEdgeStyle;curved=0;rounded=1;sketch=0;orthogonalLoop=1;jettySize=auto;html=1;strokeColor=#457B9D;fillColor=#A8DADC;fontColor=#1D3557;" edge="1" parent="P2i-HHUua_utwsOdTMRU-73" source="P2i-HHUua_utwsOdTMRU-61" target="P2i-HHUua_utwsOdTMRU-66">
          <mxGeometry relative="1" as="geometry">
            <mxPoint x="80" y="240" as="targetPoint" />
          </mxGeometry>
        </mxCell>
        <mxCell id="P2i-HHUua_utwsOdTMRU-70" value="queue/exec txn" style="edgeLabel;html=1;align=center;verticalAlign=middle;resizable=0;points=[];fontColor=#1D3557;" vertex="1" connectable="0" parent="P2i-HHUua_utwsOdTMRU-62">
          <mxGeometry x="-0.1973" y="-2" relative="1" as="geometry">
            <mxPoint as="offset" />
          </mxGeometry>
        </mxCell>
        <mxCell id="P2i-HHUua_utwsOdTMRU-57" style="edgeStyle=orthogonalEdgeStyle;curved=0;rounded=1;sketch=0;orthogonalLoop=1;jettySize=auto;html=1;strokeColor=#457B9D;fillColor=#A8DADC;fontColor=#1D3557;exitX=0.367;exitY=0.217;exitDx=0;exitDy=0;exitPerimeter=0;" edge="1" parent="P2i-HHUua_utwsOdTMRU-73" source="P2i-HHUua_utwsOdTMRU-56" target="P2i-HHUua_utwsOdTMRU-51">
          <mxGeometry relative="1" as="geometry">
            <mxPoint x="830" y="110" as="sourcePoint" />
            <Array as="points">
              <mxPoint x="280" y="72" />
              <mxPoint x="280" y="139" />
            </Array>
          </mxGeometry>
        </mxCell>
        <mxCell id="P2i-HHUua_utwsOdTMRU-123" value="castVote" style="edgeLabel;html=1;align=center;verticalAlign=middle;resizable=0;points=[];fontColor=#1D3557;" vertex="1" connectable="0" parent="P2i-HHUua_utwsOdTMRU-57">
          <mxGeometry x="-0.4126" relative="1" as="geometry">
            <mxPoint x="1" as="offset" />
          </mxGeometry>
        </mxCell>
        <mxCell id="P2i-HHUua_utwsOdTMRU-56" value="Yam Holder" style="shape=umlActor;verticalLabelPosition=bottom;verticalAlign=top;html=1;rounded=0;sketch=0;strokeColor=#457B9D;fillColor=#A8DADC;fontColor=#1D3557;" vertex="1" parent="P2i-HHUua_utwsOdTMRU-73">
          <mxGeometry x="90" y="58.97000000000003" width="30" height="60" as="geometry" />
        </mxCell>
        <mxCell id="P2i-HHUua_utwsOdTMRU-94" value="" style="group" vertex="1" connectable="0" parent="1">
          <mxGeometry x="-540" y="1300" width="370" height="300" as="geometry" />
        </mxCell>
        <mxCell id="P2i-HHUua_utwsOdTMRU-93" value="Rebasing" style="verticalAlign=top;align=left;spacingTop=8;spacingLeft=2;spacingRight=12;shape=cube;size=10;direction=south;fontStyle=4;html=1;rounded=0;sketch=0;fillColor=#dae8fc;strokeColor=#6c8ebf;" vertex="1" parent="P2i-HHUua_utwsOdTMRU-94">
          <mxGeometry width="370" height="300" as="geometry" />
        </mxCell>
        <mxCell id="P2i-HHUua_utwsOdTMRU-81" value="&lt;font style=&quot;font-size: 15px&quot;&gt;Uniswap&lt;/font&gt;" style="ellipse;shape=umlEntity;whiteSpace=wrap;html=1;rounded=0;sketch=0;strokeColor=#457B9D;fillColor=#A8DADC;fontColor=#1D3557;" vertex="1" parent="P2i-HHUua_utwsOdTMRU-94">
          <mxGeometry x="50" y="170" width="90" height="90" as="geometry" />
        </mxCell>
        <mxCell id="P2i-HHUua_utwsOdTMRU-87" value="&lt;font style=&quot;font-size: 14px&quot;&gt;Rebaser&lt;/font&gt;" style="ellipse;shape=umlEntity;whiteSpace=wrap;html=1;rounded=0;sketch=0;strokeColor=#457B9D;fillColor=#A8DADC;fontColor=#1D3557;" vertex="1" parent="P2i-HHUua_utwsOdTMRU-94">
          <mxGeometry x="221.07999999999998" y="130" width="111.16" height="110" as="geometry" />
        </mxCell>
        <mxCell id="P2i-HHUua_utwsOdTMRU-82" style="edgeStyle=orthogonalEdgeStyle;curved=0;rounded=1;sketch=0;orthogonalLoop=1;jettySize=auto;html=1;entryX=1;entryY=0;entryDx=0;entryDy=0;strokeColor=#457B9D;fillColor=#A8DADC;fontColor=#1D3557;exitX=0;exitY=0.5;exitDx=0;exitDy=0;" edge="1" parent="P2i-HHUua_utwsOdTMRU-94" source="P2i-HHUua_utwsOdTMRU-87" target="P2i-HHUua_utwsOdTMRU-81">
          <mxGeometry relative="1" as="geometry">
            <mxPoint x="270" y="200" as="sourcePoint" />
          </mxGeometry>
        </mxCell>
        <mxCell id="P2i-HHUua_utwsOdTMRU-83" value="1. getTWAP" style="edgeLabel;html=1;align=center;verticalAlign=middle;resizable=0;points=[];fontColor=#1D3557;" vertex="1" connectable="0" parent="P2i-HHUua_utwsOdTMRU-82">
          <mxGeometry x="0.1735" y="2" relative="1" as="geometry">
            <mxPoint x="13.12" y="-0.19" as="offset" />
          </mxGeometry>
        </mxCell>
        <mxCell id="P2i-HHUua_utwsOdTMRU-85" style="edgeStyle=orthogonalEdgeStyle;curved=0;rounded=1;sketch=0;orthogonalLoop=1;jettySize=auto;html=1;exitX=0.5;exitY=1;exitDx=0;exitDy=0;entryX=0.5;entryY=1;entryDx=0;entryDy=0;strokeColor=#457B9D;fillColor=#A8DADC;fontColor=#1D3557;" edge="1" parent="P2i-HHUua_utwsOdTMRU-94" source="P2i-HHUua_utwsOdTMRU-87" target="P2i-HHUua_utwsOdTMRU-81">
          <mxGeometry relative="1" as="geometry">
            <mxPoint x="345" y="260" as="sourcePoint" />
          </mxGeometry>
        </mxCell>
        <mxCell id="P2i-HHUua_utwsOdTMRU-86" value="3. Trade Yam/yCRV" style="edgeLabel;html=1;align=center;verticalAlign=middle;resizable=0;points=[];fontColor=#1D3557;" vertex="1" connectable="0" parent="P2i-HHUua_utwsOdTMRU-85">
          <mxGeometry x="0.1211" y="-1" relative="1" as="geometry">
            <mxPoint as="offset" />
          </mxGeometry>
        </mxCell>
        <mxCell id="P2i-HHUua_utwsOdTMRU-90" value="Reserves" style="strokeWidth=2;html=1;shape=mxgraph.flowchart.database;whiteSpace=wrap;rounded=0;sketch=0;fillColor=#A8DADC;fontColor=#1D3557;" vertex="1" parent="P2i-HHUua_utwsOdTMRU-94">
          <mxGeometry x="55" y="30" width="80" height="70" as="geometry" />
        </mxCell>
        <mxCell id="P2i-HHUua_utwsOdTMRU-91" value="4. send yCRV to" style="edgeStyle=orthogonalEdgeStyle;curved=0;rounded=1;sketch=0;orthogonalLoop=1;jettySize=auto;html=1;entryX=0.5;entryY=1;entryDx=0;entryDy=0;entryPerimeter=0;strokeColor=#457B9D;fillColor=#A8DADC;fontColor=#1D3557;" edge="1" parent="P2i-HHUua_utwsOdTMRU-94" source="P2i-HHUua_utwsOdTMRU-81" target="P2i-HHUua_utwsOdTMRU-90">
          <mxGeometry relative="1" as="geometry" />
        </mxCell>
        <mxCell id="P2i-HHUua_utwsOdTMRU-77" style="edgeStyle=orthogonalEdgeStyle;curved=0;rounded=1;sketch=0;orthogonalLoop=1;jettySize=auto;html=1;strokeColor=#457B9D;fillColor=#A8DADC;fontColor=#1D3557;exitX=1;exitY=0.5;exitDx=0;exitDy=0;" edge="1" parent="1" source="P2i-HHUua_utwsOdTMRU-87" target="P2i-HHUua_utwsOdTMRU-78">
          <mxGeometry relative="1" as="geometry">
            <mxPoint x="-110" y="1495" as="sourcePoint" />
          </mxGeometry>
        </mxCell>
        <mxCell id="P2i-HHUua_utwsOdTMRU-84" value="2. updateScalingFactor" style="edgeLabel;html=1;align=center;verticalAlign=middle;resizable=0;points=[];fontColor=#1D3557;" vertex="1" connectable="0" parent="P2i-HHUua_utwsOdTMRU-77">
          <mxGeometry x="-0.2315" y="-1" relative="1" as="geometry">
            <mxPoint x="1" as="offset" />
          </mxGeometry>
        </mxCell>
        <mxCell id="P2i-HHUua_utwsOdTMRU-75" style="edgeStyle=orthogonalEdgeStyle;curved=0;rounded=1;sketch=0;orthogonalLoop=1;jettySize=auto;html=1;entryX=0.5;entryY=0;entryDx=0;entryDy=0;strokeColor=#457B9D;fillColor=#A8DADC;fontColor=#1D3557;" edge="1" parent="1" source="P2i-HHUua_utwsOdTMRU-42" target="P2i-HHUua_utwsOdTMRU-87">
          <mxGeometry relative="1" as="geometry">
            <mxPoint x="-195" y="1440" as="targetPoint" />
          </mxGeometry>
        </mxCell>
        <mxCell id="P2i-HHUua_utwsOdTMRU-76" value="Gov" style="edgeLabel;html=1;align=center;verticalAlign=middle;resizable=0;points=[];fontColor=#1D3557;" vertex="1" connectable="0" parent="P2i-HHUua_utwsOdTMRU-75">
          <mxGeometry x="-0.2762" y="13" relative="1" as="geometry">
            <mxPoint as="offset" />
          </mxGeometry>
        </mxCell>
        <mxCell id="P2i-HHUua_utwsOdTMRU-89" style="edgeStyle=orthogonalEdgeStyle;curved=0;rounded=1;sketch=0;orthogonalLoop=1;jettySize=auto;html=1;exitX=0;exitY=0;exitDx=107.5;exitDy=220.76923076923077;exitPerimeter=0;strokeColor=#457B9D;fillColor=#A8DADC;fontColor=#1D3557;" edge="1" parent="1" source="P2i-HHUua_utwsOdTMRU-42" target="P2i-HHUua_utwsOdTMRU-90">
          <mxGeometry relative="1" as="geometry">
            <mxPoint x="-590" y="1319" as="targetPoint" />
          </mxGeometry>
        </mxCell>
        <mxCell id="P2i-HHUua_utwsOdTMRU-92" value="Gov" style="edgeLabel;html=1;align=center;verticalAlign=middle;resizable=0;points=[];fontColor=#1D3557;" vertex="1" connectable="0" parent="P2i-HHUua_utwsOdTMRU-89">
          <mxGeometry x="-0.0479" y="57" relative="1" as="geometry">
            <mxPoint x="-57" y="57" as="offset" />
          </mxGeometry>
        </mxCell>
        <mxCell id="P2i-HHUua_utwsOdTMRU-107" value="" style="group" vertex="1" connectable="0" parent="1">
          <mxGeometry x="440" y="740" width="250" height="250" as="geometry" />
        </mxCell>
        <mxCell id="P2i-HHUua_utwsOdTMRU-95" value="Token Distribution Pools" style="verticalAlign=top;align=left;spacingTop=8;spacingLeft=2;spacingRight=12;shape=cube;size=10;direction=south;fontStyle=4;html=1;rounded=0;sketch=0;strokeColor=#666666;fillColor=#f5f5f5;fontColor=#333333;" vertex="1" parent="P2i-HHUua_utwsOdTMRU-107">
          <mxGeometry x="30" width="180" height="200" as="geometry" />
        </mxCell>
        <mxCell id="P2i-HHUua_utwsOdTMRU-96" value="ETH" style="html=1;dropTarget=0;rounded=0;sketch=0;strokeColor=#457B9D;fillColor=#A8DADC;fontColor=#1D3557;" vertex="1" parent="P2i-HHUua_utwsOdTMRU-107">
          <mxGeometry x="50" y="54.05405405405406" width="140" height="20.270270270270274" as="geometry" />
        </mxCell>
        <mxCell id="P2i-HHUua_utwsOdTMRU-97" value="" style="shape=component;jettyWidth=8;jettyHeight=4;" vertex="1" parent="P2i-HHUua_utwsOdTMRU-96">
          <mxGeometry x="1" width="20" height="20" relative="1" as="geometry">
            <mxPoint x="-27" y="7" as="offset" />
          </mxGeometry>
        </mxCell>
        <mxCell id="P2i-HHUua_utwsOdTMRU-98" value="AMPL/ETH" style="html=1;dropTarget=0;rounded=0;sketch=0;strokeColor=#457B9D;fillColor=#A8DADC;fontColor=#1D3557;" vertex="1" parent="P2i-HHUua_utwsOdTMRU-107">
          <mxGeometry x="50" y="87.83783783783784" width="140" height="20.270270270270274" as="geometry" />
        </mxCell>
        <mxCell id="P2i-HHUua_utwsOdTMRU-99" value="" style="shape=component;jettyWidth=8;jettyHeight=4;" vertex="1" parent="P2i-HHUua_utwsOdTMRU-98">
          <mxGeometry x="1" width="20" height="20" relative="1" as="geometry">
            <mxPoint x="-27" y="7" as="offset" />
          </mxGeometry>
        </mxCell>
        <mxCell id="P2i-HHUua_utwsOdTMRU-101" value="Others ..." style="html=1;dropTarget=0;rounded=0;sketch=0;strokeColor=#457B9D;fillColor=#A8DADC;fontColor=#1D3557;" vertex="1" parent="P2i-HHUua_utwsOdTMRU-107">
          <mxGeometry x="50" y="155.40540540540542" width="140" height="20.270270270270274" as="geometry" />
        </mxCell>
        <mxCell id="P2i-HHUua_utwsOdTMRU-102" value="" style="shape=component;jettyWidth=8;jettyHeight=4;" vertex="1" parent="P2i-HHUua_utwsOdTMRU-101">
          <mxGeometry x="1" width="20" height="20" relative="1" as="geometry">
            <mxPoint x="-27" y="7" as="offset" />
          </mxGeometry>
        </mxCell>
        <mxCell id="P2i-HHUua_utwsOdTMRU-103" value="LINK" style="html=1;dropTarget=0;rounded=0;sketch=0;strokeColor=#457B9D;fillColor=#A8DADC;fontColor=#1D3557;" vertex="1" parent="P2i-HHUua_utwsOdTMRU-107">
          <mxGeometry x="50" y="121.62162162162163" width="140" height="20.270270270270274" as="geometry" />
        </mxCell>
        <mxCell id="P2i-HHUua_utwsOdTMRU-104" value="" style="shape=component;jettyWidth=8;jettyHeight=4;" vertex="1" parent="P2i-HHUua_utwsOdTMRU-103">
          <mxGeometry x="1" width="20" height="20" relative="1" as="geometry">
            <mxPoint x="-27" y="7" as="offset" />
          </mxGeometry>
        </mxCell>
        <mxCell id="P2i-HHUua_utwsOdTMRU-109" style="edgeStyle=orthogonalEdgeStyle;curved=0;rounded=1;sketch=0;orthogonalLoop=1;jettySize=auto;html=1;strokeColor=#457B9D;fillColor=#A8DADC;fontColor=#1D3557;" edge="1" parent="1" source="P2i-HHUua_utwsOdTMRU-108" target="P2i-HHUua_utwsOdTMRU-96">
          <mxGeometry relative="1" as="geometry" />
        </mxCell>
        <mxCell id="P2i-HHUua_utwsOdTMRU-110" value="stake" style="edgeLabel;html=1;align=center;verticalAlign=middle;resizable=0;points=[];fontColor=#1D3557;" vertex="1" connectable="0" parent="P2i-HHUua_utwsOdTMRU-109">
          <mxGeometry x="-0.0406" y="-1" relative="1" as="geometry">
            <mxPoint as="offset" />
          </mxGeometry>
        </mxCell>
        <mxCell id="P2i-HHUua_utwsOdTMRU-108" value="Holder" style="shape=umlActor;verticalLabelPosition=bottom;verticalAlign=top;html=1;rounded=0;sketch=0;strokeColor=#457B9D;fillColor=#A8DADC;fontColor=#1D3557;" vertex="1" parent="1">
          <mxGeometry x="760" y="950" width="30" height="60" as="geometry" />
        </mxCell>
        <mxCell id="P2i-HHUua_utwsOdTMRU-116" style="edgeStyle=orthogonalEdgeStyle;curved=0;rounded=1;sketch=0;orthogonalLoop=1;jettySize=auto;html=1;entryX=1;entryY=0.5;entryDx=0;entryDy=0;strokeColor=#457B9D;fillColor=#A8DADC;fontColor=#1D3557;" edge="1" parent="1" source="P2i-HHUua_utwsOdTMRU-108" target="P2i-HHUua_utwsOdTMRU-113">
          <mxGeometry relative="1" as="geometry" />
        </mxCell>
        <mxCell id="P2i-HHUua_utwsOdTMRU-117" value="stake" style="edgeLabel;html=1;align=center;verticalAlign=middle;resizable=0;points=[];fontColor=#1D3557;" vertex="1" connectable="0" parent="P2i-HHUua_utwsOdTMRU-116">
          <mxGeometry x="0.1137" y="2" relative="1" as="geometry">
            <mxPoint as="offset" />
          </mxGeometry>
        </mxCell>
        <mxCell id="P2i-HHUua_utwsOdTMRU-119" style="edgeStyle=orthogonalEdgeStyle;curved=0;rounded=1;sketch=0;orthogonalLoop=1;jettySize=auto;html=1;entryX=0;entryY=0.5;entryDx=0;entryDy=0;strokeColor=#457B9D;fillColor=#A8DADC;fontColor=#1D3557;dashed=1;" edge="1" parent="1" source="P2i-HHUua_utwsOdTMRU-7" target="P2i-HHUua_utwsOdTMRU-96">
          <mxGeometry relative="1" as="geometry">
            <Array as="points">
              <mxPoint x="160" y="810" />
              <mxPoint x="490" y="810" />
            </Array>
          </mxGeometry>
        </mxCell>
        <mxCell id="P2i-HHUua_utwsOdTMRU-120" value="initial mint" style="edgeLabel;html=1;align=center;verticalAlign=middle;resizable=0;points=[];fontColor=#1D3557;" vertex="1" connectable="0" parent="P2i-HHUua_utwsOdTMRU-119">
          <mxGeometry x="-0.2259" y="2" relative="1" as="geometry">
            <mxPoint as="offset" />
          </mxGeometry>
        </mxCell>
        <mxCell id="P2i-HHUua_utwsOdTMRU-124" style="edgeStyle=orthogonalEdgeStyle;curved=0;rounded=1;sketch=0;orthogonalLoop=1;jettySize=auto;html=1;strokeColor=#457B9D;fillColor=#A8DADC;fontColor=#1D3557;" edge="1" parent="1" source="P2i-HHUua_utwsOdTMRU-50" target="P2i-HHUua_utwsOdTMRU-42">
          <mxGeometry relative="1" as="geometry" />
        </mxCell>
        <mxCell id="P2i-HHUua_utwsOdTMRU-125" value="admin" style="edgeLabel;html=1;align=center;verticalAlign=middle;resizable=0;points=[];fontColor=#1D3557;" vertex="1" connectable="0" parent="P2i-HHUua_utwsOdTMRU-124">
          <mxGeometry y="-6" relative="1" as="geometry">
            <mxPoint x="4" y="-6" as="offset" />
          </mxGeometry>
        </mxCell>
      </root>
    </mxGraphModel>
  </diagram>
</mxfile>
